<svg width="0" height="0" class="hidden">
  <symbol xmlns="http://www.w3.org/2000/svg" viewBox="0 0 50 50" id="github">
    <path d="M17.791,46.836C18.502,46.53,19,45.823,19,45v-5.4c0-0.197,0.016-0.402,0.041-0.61C19.027,38.994,19.014,38.997,19,39 c0,0-3,0-3.6,0c-1.5,0-2.8-0.6-3.4-1.8c-0.7-1.3-1-3.5-2.8-4.7C8.9,32.3,9.1,32,9.7,32c0.6,0.1,1.9,0.9,2.7,2c0.9,1.1,1.8,2,3.4,2 c2.487,0,3.82-0.125,4.622-0.555C21.356,34.056,22.649,33,24,33v-0.025c-5.668-0.182-9.289-2.066-10.975-4.975 c-3.665,0.042-6.856,0.405-8.677,0.707c-0.058-0.327-0.108-0.656-0.151-0.987c1.797-0.296,4.843-0.647,8.345-0.714 c-0.112-0.276-0.209-0.559-0.291-0.849c-3.511-0.178-6.541-0.039-8.187,0.097c-0.02-0.332-0.047-0.663-0.051-0.999 c1.649-0.135,4.597-0.27,8.018-0.111c-0.079-0.5-0.13-1.011-0.13-1.543c0-1.7,0.6-3.5,1.7-5c-0.5-1.7-1.2-5.3,0.2-6.6 c2.7,0,4.6,1.3,5.5,2.1C21,13.4,22.9,13,25,13s4,0.4,5.6,1.1c0.9-0.8,2.8-2.1,5.5-2.1c1.5,1.4,0.7,5,0.2,6.6c1.1,1.5,1.7,3.2,1.6,5 c0,0.484-0.045,0.951-0.11,1.409c3.499-0.172,6.527-0.034,8.204,0.102c-0.002,0.337-0.033,0.666-0.051,0.999 c-1.671-0.138-4.775-0.28-8.359-0.089c-0.089,0.336-0.197,0.663-0.325,0.98c3.546,0.046,6.665,0.389,8.548,0.689 c-0.043,0.332-0.093,0.661-0.151,0.987c-1.912-0.306-5.171-0.664-8.879-0.682C35.112,30.873,31.557,32.75,26,32.969V33 c2.6,0,5,3.9,5,6.6V45c0,0.823,0.498,1.53,1.209,1.836C41.37,43.804,48,35.164,48,25C48,12.318,37.683,2,25,2S2,12.318,2,25 C2,35.164,8.63,43.804,17.791,46.836z"></path>
  </symbol>
  <symbol xmlns="http://www.w3.org/2000/svg" viewBox="0 0 50 50" id="linkedin">
    <path d="M25,2C12.318,2,2,12.317,2,25s10.318,23,23,23s23-10.317,23-23S37.682,2,25,2z M18,35h-4V20h4V35z M16,17 c-1.105,0-2-0.895-2-2c0-1.105,0.895-2,2-2s2,0.895,2,2C18,16.105,17.105,17,16,17z M37,35h-4v-5v-2.5c0-1.925-1.575-3.5-3.5-3.5 S26,25.575,26,27.5V35h-4V20h4v1.816C27.168,20.694,28.752,20,30.5,20c3.59,0,6.5,2.91,6.5,6.5V35z"></path>
  </symbol>
  <symbol xmlns="http://www.w3.org/2000/svg" viewBox="0 0 50 50" id="whatsapp">
    <path d="M25,2C12.318,2,2,12.318,2,25c0,3.96,1.023,7.854,2.963,11.29L2.037,46.73c-0.096,0.343-0.003,0.711,0.245,0.966 C2.473,47.893,2.733,48,3,48c0.08,0,0.161-0.01,0.24-0.029l10.896-2.699C17.463,47.058,21.21,48,25,48c12.682,0,23-10.318,23-23 S37.682,2,25,2z M36.57,33.116c-0.492,1.362-2.852,2.605-3.986,2.772c-1.018,0.149-2.306,0.213-3.72-0.231 c-0.857-0.27-1.957-0.628-3.366-1.229c-5.923-2.526-9.791-8.415-10.087-8.804C15.116,25.235,13,22.463,13,19.594 s1.525-4.28,2.067-4.864c0.542-0.584,1.181-0.73,1.575-0.73s0.787,0.005,1.132,0.021c0.363,0.018,0.85-0.137,1.329,1.001 c0.492,1.168,1.673,4.037,1.819,4.33c0.148,0.292,0.246,0.633,0.05,1.022c-0.196,0.389-0.294,0.632-0.59,0.973 s-0.62,0.76-0.886,1.022c-0.296,0.291-0.603,0.606-0.259,1.19c0.344,0.584,1.529,2.493,3.285,4.039 c2.255,1.986,4.158,2.602,4.748,2.894c0.59,0.292,0.935,0.243,1.279-0.146c0.344-0.39,1.476-1.703,1.869-2.286 s0.787-0.487,1.329-0.292c0.542,0.194,3.445,1.604,4.035,1.896c0.59,0.292,0.984,0.438,1.132,0.681 C37.062,30.587,37.062,31.755,36.57,33.116z"></path>
  </symbol>
  <symbol xmlns="http://www.w3.org/2000/svg" viewBox="0 0 50 50" id="telegram">
    <path d="M25,2c12.703,0,23,10.297,23,23S37.703,48,25,48S2,37.703,2,25S12.297,2,25,2z M32.934,34.375	c0.423-1.298,2.405-14.234,2.65-16.783c0.074-0.772-0.17-1.285-0.648-1.514c-0.578-0.278-1.434-0.139-2.427,0.219	c-1.362,0.491-18.774,7.884-19.78,8.312c-0.954,0.405-1.856,0.847-1.856,1.487c0,0.45,0.267,0.703,1.003,0.966	c0.766,0.273,2.695,0.858,3.834,1.172c1.097,0.303,2.346,0.04,3.046-0.395c0.742-0.461,9.305-6.191,9.92-6.693	c0.614-0.502,1.104,0.141,0.602,0.644c-0.502,0.502-6.38,6.207-7.155,6.997c-0.941,0.959-0.273,1.953,0.358,2.351	c0.721,0.454,5.906,3.932,6.687,4.49c0.781,0.558,1.573,0.811,2.298,0.811C32.191,36.439,32.573,35.484,32.934,34.375z"></path>
  </symbol>
 <symbol xmlns="http://www.w3.org/2000/svg" viewBox="0 0 32 32" id="gallery">
    <title></title>
    <g id="Image">
      <path d="M25,2H7A5,5,0,0,0,2,7V25a5,5,0,0,0,5,5H25a5,5,0,0,0,5-5V7A5,5,0,0,0,25,2ZM7,4H25a3,3,0,0,1,3,3v5.59l-1.88-1.88a3,3,0,0,0-4.24,0l-7.95,8-3-2.42a3,3,0,0,0-3.8,0L4,18.86V7A3,3,0,0,1,7,4ZM25,28H7a3,3,0,0,1-3-3V21.47l4.38-3.66a1,1,0,0,1,1.27,0l3.73,3a1,1,0,0,0,1.33-.07l8.58-8.59a1,1,0,0,1,1.42,0L28,15.41V25A3,3,0,0,1,25,28Z"></path>
      <path d="M10,13a3,3,0,1,0-3-3A3,3,0,0,0,10,13Zm0-4a1,1,0,1,1-1,1A1,1,0,0,1,10,9Z"></path>
    </g>
  </symbol>
   <symbol version="1.1" id="drop-menu" xmlns="http://www.w3.org/2000/svg" xmlns:xlink="http://www.w3.org/1999/xlink" x="0px" y="0px" xml:space="preserve" viewBox="0 0 294.843 294.843">
    <g>
      <path d="M147.421,0C66.133,0,0,66.133,0,147.421c0,40.968,17.259,80.425,47.351,108.255c2.433,2.25,6.229,2.101,8.479-0.331
		c2.25-2.434,2.102-6.229-0.332-8.479C27.854,221.3,12,185.054,12,147.421C12,72.75,72.75,12,147.421,12
		s135.421,60.75,135.421,135.421s-60.75,135.421-135.421,135.421c-3.313,0-6,2.687-6,6s2.687,6,6,6
		c81.289,0,147.421-66.133,147.421-147.421S228.71,0,147.421,0z"></path>
      <path d="M84.185,90.185h126.473c3.313,0,6-2.687,6-6s-2.687-6-6-6H84.185c-3.313,0-6,2.687-6,6S80.872,90.185,84.185,90.185z"></path>
      <path d="M84.185,153.421h126.473c3.313,0,6-2.687,6-6s-2.687-6-6-6H84.185c-3.313,0-6,2.687-6,6S80.872,153.421,84.185,153.421z"></path>
      <path d="M216.658,210.658c0-3.313-2.687-6-6-6H84.185c-3.313,0-6,2.687-6,6s2.687,6,6,6h126.473
		C213.971,216.658,216.658,213.971,216.658,210.658z"></path>
    </g>
    <g></g>
    <g></g>
    <g></g>
    <g></g>
    <g></g>
    <g></g>
    <g></g>
    <g></g>
    <g></g>
    <g></g>
    <g></g>
    <g></g>
    <g></g>
    <g></g>
    <g></g>
  </symbol>
   <symbol xmlns="http://www.w3.org/2000/svg" viewBox="0 0 24 24" id="home-page">
    <g>
      <path fill="none" d="M0 0h24v24H0z"></path>
      <path d="M19 21H5a1 1 0 0 1-1-1v-9H1l10.327-9.388a1 1 0 0 1 1.346 0L23 11h-3v9a1 1 0 0 1-1 1zM6 19h12V9.157l-6-5.454-6 5.454V19z"></path>
    </g>
  </symbol>
  <symbol id="left-arrow" version="1.1" xml:space="preserve" xmlns="http://www.w3.org/2000/svg" xmlns:xlink="http://www.w3.org/1999/xlink" viewBox="0 0 512 512">
    <polygon points="352,128.4 319.7,96 160,256 160,256 160,256 319.7,416 352,383.6 224.7,256 "></polygon>
  </symbol>
</svg>